<?xml version="1.0" standalone="no"?>
<!DOCTYPE svg PUBLIC "-//W3C//DTD SVG 20010904//EN"
 "http://www.w3.org/TR/2001/REC-SVG-20010904/DTD/svg10.dtd">
<svg version="1.0" xmlns="http://www.w3.org/2000/svg"
 width="1200.000000pt" height="1200.000000pt" viewBox="0 0 1200.000000 1200.000000"
 preserveAspectRatio="xMidYMid meet">
<g transform="translate(0.000000,1200.000000) scale(0.100000,-0.100000)"
fill="#000000" stroke="none">
<path d="M0 6000 l0 -6000 6000 0 6000 0 0 6000 0 6000 -6000 0 -6000 0 0
-6000z m6200 4240 c546 -41 1087 -245 1525 -575 531 -400 912 -974 1069 -1610
65 -259 86 -437 86 -710 0 -273 -21 -451 -86 -710 -161 -650 -560 -1241 -1108
-1640 -443 -322 -970 -511 -1528 -547 -671 -44 -1361 159 -1900 559 -651 483
-1069 1205 -1163 2009 -19 167 -19 491 0 658 27 230 77 441 157 661 194 537
537 997 1001 1343 300 225 657 393 1021 482 334 81 601 104 926 80z m-3150
-6542 l0 -183 19 31 c39 64 154 93 227 58 62 -30 69 -54 72 -281 3 -194 4
-204 25 -218 12 -8 29 -15 39 -15 10 0 18 -4 18 -10 0 -6 -48 -10 -125 -10
-69 0 -125 3 -125 8 0 4 15 14 33 22 l32 15 0 218 0 219 -25 20 c-50 41 -139
7 -170 -65 -21 -47 -22 -67 -21 -260 l1 -139 30 -11 c17 -6 30 -15 30 -19 0
-4 -54 -8 -120 -8 -115 0 -154 11 -89 25 19 4 34 16 40 32 12 33 12 644 -1
678 -6 15 -23 32 -40 38 -46 18 -36 26 38 30 37 2 77 4 90 5 l22 2 0 -182z
m-391 97 c52 -30 68 -31 76 -5 3 11 13 20 22 20 10 0 13 -6 9 -16 -3 -9 -6
-56 -6 -105 0 -69 -3 -89 -14 -89 -9 0 -16 16 -20 44 -8 50 -38 99 -79 130
-21 15 -43 21 -84 21 -50 0 -57 -3 -89 -37 -26 -29 -34 -46 -34 -76 0 -60 34
-100 153 -178 168 -111 207 -157 207 -248 0 -61 -19 -104 -63 -143 -67 -59
-183 -71 -275 -28 -65 30 -69 30 -77 5 -3 -11 -13 -20 -22 -20 -12 0 -14 7 -9
31 3 17 6 74 6 126 0 108 16 123 35 32 13 -67 48 -131 83 -151 68 -41 151 -30
197 23 20 24 25 41 25 83 0 75 -26 107 -152 191 -59 39 -117 80 -129 90 -56
50 -74 156 -40 231 39 86 186 122 280 69z m4847 0 c59 -30 70 -31 77 -5 3 11
10 20 16 20 7 0 11 -36 11 -105 0 -78 -3 -105 -13 -105 -7 0 -18 23 -24 51
-29 119 -125 177 -219 133 -42 -20 -64 -59 -64 -113 0 -54 33 -90 152 -168
124 -80 167 -118 189 -168 48 -106 -10 -234 -119 -265 -66 -18 -142 -12 -201
15 -57 27 -81 27 -81 0 0 -8 -7 -15 -16 -15 -14 0 -16 11 -11 93 4 50 6 107 7
125 0 39 18 42 25 5 26 -126 62 -182 132 -203 58 -18 110 -5 150 35 29 29 33
39 33 85 0 74 -25 109 -128 177 -126 82 -170 120 -192 163 -25 48 -26 129 -4
176 42 88 177 121 280 69z m1366 -3 c127 -62 200 -211 185 -380 -21 -232 -159
-366 -363 -349 -121 9 -210 72 -263 187 -20 45 -26 74 -29 157 -7 171 42 286
152 361 66 44 97 52 191 49 59 -2 93 -9 127 -25z m-560 -92 c-2 -82 -7 -110
-16 -110 -9 0 -16 20 -20 58 -12 105 -54 142 -163 142 l-43 0 0 -317 c0 -234
4 -325 13 -343 9 -18 25 -28 55 -34 78 -18 43 -26 -113 -26 -149 0 -199 10
-115 24 24 4 43 14 50 25 6 13 10 141 10 345 l0 326 -39 0 c-108 0 -144 -29
-161 -131 -8 -46 -16 -69 -26 -69 -10 0 -13 23 -13 110 l0 110 292 0 292 0 -3
-110z m1221 96 c25 -7 60 -24 77 -36 85 -60 94 -219 18 -306 -51 -57 -100 -77
-205 -82 l-93 -4 0 -115 c0 -63 5 -123 10 -134 7 -11 26 -21 50 -25 82 -13 35
-24 -105 -24 -90 0 -145 4 -145 10 0 6 11 10 25 10 14 0 34 9 45 20 19 19 20
33 20 330 0 297 -1 311 -20 330 -11 11 -31 20 -45 20 -14 0 -25 5 -25 10 0 16
337 13 393 -4z m-5708 -187 c94 -26 155 -133 155 -269 0 -178 -88 -280 -243
-280 -86 0 -157 44 -200 125 -19 34 -22 56 -22 155 0 99 3 121 22 155 57 106
164 148 288 114z m403 -37 l3 -42 27 31 c92 111 270 59 312 -90 15 -56 12
-182 -7 -240 -43 -135 -186 -208 -296 -152 l-37 19 -1 -57 c-2 -116 2 -126 62
-136 79 -14 36 -25 -96 -25 -83 0 -135 4 -135 10 0 6 7 10 15 10 8 0 24 9 35
20 19 19 20 33 20 309 0 171 -4 301 -10 316 -6 15 -23 32 -40 38 -17 6 -30 15
-30 19 0 6 113 16 160 14 10 -1 16 -14 18 -44z m602 5 l0 -44 40 38 c87 83
225 57 282 -52 62 -120 35 -312 -56 -401 -60 -58 -158 -75 -229 -39 l-37 19 0
-78 c0 -89 9 -105 65 -116 73 -13 30 -24 -100 -24 -74 0 -135 3 -135 8 0 4 15
14 33 22 l32 15 3 304 c3 331 1 343 -53 357 -46 11 -25 23 48 27 39 1 80 4 90
5 14 2 17 -6 17 -41z m775 24 c22 -10 48 -28 58 -39 24 -27 46 -88 47 -129 l0
-33 -160 0 -159 0 -6 -33 c-8 -40 8 -135 29 -176 19 -35 69 -79 102 -87 48
-12 97 6 140 52 23 24 44 44 48 44 16 0 3 -33 -26 -66 -116 -132 -334 -80
-384 92 -32 112 -4 261 62 328 64 64 169 84 249 47z m355 -38 l0 -58 25 37
c54 80 143 102 196 49 33 -34 37 -59 11 -91 -20 -25 -63 -30 -87 -10 -20 17
-19 59 2 82 43 48 -38 31 -84 -18 -48 -51 -63 -115 -63 -265 0 -155 7 -176 67
-192 24 -6 43 -15 43 -19 0 -4 -63 -8 -140 -8 -133 0 -177 10 -110 25 42 9 46
33 40 267 l-5 203 -32 15 c-18 8 -33 18 -33 22 0 4 33 9 73 11 39 1 78 4 85 5
8 1 12 -15 12 -55z m764 32 l47 -25 9 25 c19 50 30 26 30 -65 0 -70 -3 -90
-14 -90 -7 0 -16 14 -20 31 -16 82 -84 137 -152 124 -57 -10 -82 -74 -50 -121
8 -11 60 -51 115 -88 114 -76 144 -115 144 -183 0 -55 -24 -90 -83 -120 -58
-30 -129 -30 -188 -1 -41 19 -45 20 -54 5 -5 -10 -14 -17 -21 -17 -9 0 -11 28
-9 105 2 78 7 105 16 105 8 0 16 -18 19 -45 10 -70 42 -124 84 -142 72 -30
143 11 143 83 0 44 -32 79 -136 149 -106 72 -127 101 -121 172 2 33 11 61 23
74 48 54 142 64 218 24z m-3024 -1168 c76 -40 103 -131 58 -197 -31 -44 -65
-69 -128 -90 l-52 -18 35 -11 c45 -15 94 -70 102 -114 15 -81 -39 -168 -133
-214 -57 -28 -58 -28 -284 -31 -202 -3 -228 -2 -228 12 0 12 11 16 50 16 43 0
52 3 60 23 15 37 160 576 160 597 0 17 -7 20 -45 20 -42 0 -54 7 -38 23 3 4
95 7 203 7 186 0 199 -1 240 -23z m3390 19 c0 -15 -52 -225 -60 -245 -17 -38
-25 -15 -21 62 3 87 -8 121 -48 142 -32 16 -78 20 -97 7 -11 -6 -174 -590
-174 -619 0 -9 19 -13 60 -13 49 0 58 -3 54 -15 -5 -13 -34 -15 -175 -15 -144
0 -169 2 -169 15 0 12 13 15 59 15 37 0 63 5 68 13 14 22 172 610 166 620 -11
18 -95 0 -137 -30 -30 -21 -52 -50 -84 -113 -40 -77 -61 -106 -62 -83 -1 4 16
65 37 135 l38 128 273 0 c149 0 272 -2 272 -4z m1990 -21 c24 -29 12 -90 -53
-250 -35 -88 -72 -184 -81 -212 -17 -51 -31 -71 -43 -60 -3 3 6 75 20 159 14
84 31 192 37 240 14 101 35 138 80 138 15 0 33 -7 40 -15z m-4233 -27 c-3 -18
-17 -72 -31 -120 l-24 -88 55 0 c76 0 67 -24 -10 -28 -31 -2 -57 -5 -57 -8 0
-3 -18 -71 -39 -152 -48 -180 -52 -211 -29 -225 25 -16 63 24 84 87 21 65 24
70 36 58 13 -13 -30 -122 -63 -154 -33 -33 -76 -37 -110 -9 -34 28 -30 96 14
257 21 72 37 134 37 137 0 4 -13 7 -30 7 -20 0 -30 5 -30 15 0 11 11 15 38 15
l37 0 29 113 c16 61 31 115 33 120 2 4 18 7 35 7 29 0 30 -2 25 -32z m-730
-224 c22 -22 25 -32 20 -67 -9 -69 -76 -117 -202 -143 l-40 -9 -3 -76 c-3 -90
8 -109 67 -109 47 0 82 26 117 86 25 42 44 57 44 33 0 -18 -21 -53 -54 -87
-89 -96 -198 -80 -242 33 -44 115 30 285 151 348 48 26 111 22 142 -9z m382
12 c55 -29 80 -106 45 -140 -18 -19 -28 -20 -55 -6 -25 14 -24 38 3 67 21 22
21 23 3 43 -13 15 -31 20 -65 20 -65 0 -98 -38 -91 -107 1 -7 30 -33 66 -58
78 -56 95 -78 95 -125 0 -77 -75 -139 -168 -140 -102 0 -174 90 -126 158 19
28 60 29 74 2 9 -17 6 -24 -15 -44 -14 -13 -25 -30 -25 -39 0 -47 124 -65 174
-26 20 16 26 29 26 59 0 35 -5 43 -57 83 -86 66 -98 83 -98 132 0 99 122 168
214 121z m908 -13 c31 -47 21 -122 -31 -245 -54 -125 -58 -158 -21 -158 19 0
33 11 55 47 17 26 36 62 42 80 13 34 28 44 28 18 0 -28 -59 -132 -86 -154 -34
-27 -76 -27 -100 0 -15 16 -19 35 -18 83 1 49 11 82 48 168 54 125 58 158 21
158 -19 0 -33 -11 -55 -47 -16 -25 -34 -61 -41 -80 -6 -18 -17 -33 -25 -33
-12 0 -12 6 1 38 26 60 64 120 87 137 35 24 75 19 95 -12z m316 12 c29 -28 32
-88 11 -170 -3 -11 12 7 33 41 68 108 106 144 154 144 84 0 92 -107 20 -274
-49 -113 -55 -148 -28 -154 27 -6 61 31 92 99 14 32 30 59 36 59 15 0 11 -17
-16 -75 -44 -93 -119 -139 -159 -99 -41 40 -33 124 24 254 22 52 42 108 43
125 2 26 -2 30 -24 33 -19 2 -35 -8 -67 -42 -46 -50 -130 -210 -162 -310 -21
-65 -22 -66 -57 -66 -28 0 -33 3 -29 18 16 51 86 322 91 353 15 83 -49 51 -91
-45 -16 -36 -34 -66 -41 -66 -15 0 -8 22 31 98 41 81 102 114 139 77z m1688
-23 c96 -108 34 -327 -113 -403 -191 -98 -290 180 -129 363 73 84 187 102 242
40z m303 22 c42 -41 33 -117 -28 -263 -26 -62 -46 -119 -44 -129 2 -11 14 -18
35 -20 72 -7 178 164 233 376 10 39 13 42 46 42 29 0 34 -3 30 -17 -38 -128
-88 -327 -89 -358 l-2 -40 48 1 c41 0 53 5 88 40 57 55 109 163 109 225 0 36
-4 49 -14 49 -8 0 -27 10 -42 23 -22 19 -26 29 -20 50 4 17 15 29 31 33 126
32 110 -230 -23 -378 -65 -72 -163 -99 -213 -59 -20 16 -24 29 -24 74 l0 54
-33 -48 c-61 -92 -139 -123 -187 -74 -41 40 -35 101 26 250 51 127 55 155 21
155 -26 0 -57 -36 -87 -103 -15 -31 -31 -57 -36 -57 -15 0 -11 18 18 76 46 94
117 139 157 98z m712 -9 c13 -20 16 -41 12 -96 l-5 -70 48 75 c69 108 140 144
185 95 15 -16 19 -35 18 -83 -1 -49 -11 -82 -48 -168 -53 -124 -58 -158 -22
-158 29 0 52 27 86 101 30 67 28 65 40 53 13 -13 -43 -122 -80 -156 -37 -34
-79 -36 -106 -7 -34 37 -24 117 30 246 25 62 46 124 46 138 0 41 -45 34 -91
-15 -44 -46 -150 -251 -169 -328 -13 -50 -15 -52 -47 -52 -18 0 -33 5 -33 11
0 5 20 85 45 177 25 91 45 181 45 199 0 65 -50 28 -95 -70 -15 -31 -31 -57
-36 -57 -15 0 -11 18 20 79 52 101 122 140 157 86z"/>
<path d="M5730 10113 c-386 -38 -740 -146 -1069 -323 -752 -406 -1276 -1137
-1421 -1980 -64 -375 -46 -792 50 -1166 92 -357 289 -748 526 -1044 93 -116
309 -330 424 -422 361 -287 763 -472 1220 -562 298 -59 698 -63 990 -10 471
85 899 278 1270 572 115 92 331 306 424 422 174 218 353 534 445 788 56 154
116 390 142 563 32 209 32 581 0 788 -46 301 -130 569 -261 836 -321 652 -885
1151 -1575 1395 -181 63 -441 121 -634 140 -95 9 -449 12 -531 3z m1468 -1160
l2 -222 88 -74 c211 -179 377 -388 492 -617 56 -113 63 -138 54 -196 -13 -88
-87 -154 -172 -154 -79 0 -128 41 -185 156 -90 180 -261 393 -421 523 -168
137 -370 246 -566 305 -143 43 -357 76 -487 76 -114 0 -323 -29 -438 -60 -180
-50 -382 -146 -539 -259 -201 -143 -396 -371 -506 -591 -62 -123 -95 -152
-180 -153 -108 -2 -189 94 -177 209 3 28 20 80 37 115 240 479 665 845 1180
1013 209 68 321 87 558 93 274 8 452 -18 687 -97 100 -34 130 -37 139 -14 3 9
6 48 6 88 0 40 3 76 7 80 4 3 99 5 212 4 l206 -3 3 -222z m-903 -463 c408 -87
744 -327 953 -677 l52 -87 0 -1086 c0 -966 -2 -1088 -16 -1108 l-15 -22 -750
0 -749 0 0 720 0 720 -412 -2 -413 -3 -3 -717 -2 -718 -99 0 c-92 0 -101 2
-115 22 -14 20 -16 142 -16 1113 l0 1090 50 85 c137 231 343 422 585 542 155
77 248 108 420 139 137 25 386 20 530 -11z"/>
<path d="M6240 6605 l0 -345 410 0 410 0 0 345 0 345 -410 0 -410 0 0 -345z"/>
<path d="M8650 3778 c-49 -25 -102 -94 -120 -156 -65 -228 0 -470 142 -527 68
-27 122 -14 179 43 72 73 92 138 93 292 1 143 -16 215 -69 284 -34 46 -104 86
-150 86 -17 0 -51 -10 -75 -22z"/>
<path d="M9351 3771 c-20 -20 -21 -31 -21 -201 l0 -180 58 0 c136 1 187 63
180 220 -4 125 -36 164 -147 177 -41 5 -52 2 -70 -16z"/>
<path d="M3704 3590 c-28 -11 -60 -52 -76 -98 -20 -58 -17 -256 5 -313 33 -87
101 -120 164 -80 42 27 61 65 75 156 13 87 0 223 -27 275 -28 55 -90 81 -141
60z"/>
<path d="M4302 3570 c-65 -40 -72 -64 -72 -262 l0 -177 27 -20 c37 -30 68 -36
114 -22 77 23 117 135 106 300 -6 101 -23 148 -62 179 -34 27 -70 28 -113 2z"/>
<path d="M4902 3570 c-65 -40 -72 -64 -72 -262 l0 -177 26 -20 c68 -53 152
-30 194 54 23 46 25 61 25 180 0 115 -3 135 -23 176 -34 69 -88 87 -150 49z"/>
<path d="M5475 3591 c-41 -17 -85 -92 -85 -146 l0 -25 111 0 112 0 -7 46 c-14
103 -65 152 -131 125z"/>
<path d="M3445 2410 c-6 -9 -75 -254 -75 -265 0 -3 40 -5 88 -5 138 0 208 46
219 144 7 57 -11 102 -48 121 -32 17 -174 21 -184 5z"/>
<path d="M3359 2108 c0 -2 -20 -73 -43 -158 -24 -85 -40 -159 -36 -163 4 -5
57 -7 116 -5 128 4 149 14 189 92 29 58 32 109 9 166 -22 55 -54 70 -154 70
-44 0 -80 -1 -81 -2z"/>
<path d="M3985 2148 c-29 -22 -75 -109 -75 -142 0 -16 5 -18 42 -12 60 10 89
26 115 65 25 37 30 80 11 99 -19 19 -63 14 -93 -10z"/>
<path d="M7254 2138 c-73 -87 -119 -288 -78 -346 16 -24 61 -30 94 -12 49 26
110 191 110 294 -1 74 -15 96 -63 96 -27 0 -41 -7 -63 -32z"/>
</g>
</svg>
